<svg id="Layer_1" data-name="Layer 1" xmlns="http://www.w3.org/2000/svg" viewBox="0 0 140 32"><defs><style>.cls-1,.cls-2{fill:#fff;}.cls-1{fill-rule:evenodd;}</style></defs><title>logo</title><path class="cls-1" d="M31.15,10l0.49,8.49,0.21,0a3.87,3.87,0,0,0,2.39-1.95,0.26,0.26,0,0,1,.27-0.16h2.76a0.29,0.29,0,0,1,.35.35q0,0.33,0,.66a0.29,0.29,0,0,1-.35.34H36.68a0.18,0.18,0,0,0-.2.15,5.81,5.81,0,0,1-4.64,4,5.9,5.9,0,0,1-6.63-4,0.27,0.27,0,0,0-.32-0.23,5.12,5.12,0,0,1-.54,0,0.27,0.27,0,0,1-.3-0.3c0-.25,0-0.49,0-0.74a0.27,0.27,0,0,1,.31-0.31h2.86a0.2,0.2,0,0,1,.2.14,3.91,3.91,0,0,0,2.1,1.87l0.17,0.05h0.07L30.24,10H27.19c-0.3,0-.38-0.08-0.38-0.38s0-.34,0-0.51a0.28,0.28,0,0,1,.33-0.33h7.45c0.31,0,.39.07,0.39,0.39,0,0.16,0,.32,0,0.49a0.29,0.29,0,0,1-.34.34H31.15Z"/><path class="cls-1" d="M27,13c0.05,0.41.12,0.78,0.14,1.16a1.12,1.12,0,0,1-.68,1.14,5.81,5.81,0,0,1-1.84.51c-0.45.06-.91,0.1-1.37,0.13a0.27,0.27,0,0,0-.27.19c-0.22.54-.46,1.07-0.69,1.61-0.11.26-.25,0.29-0.46,0.11l-1.2-1c-0.17-.15-0.17-0.22,0-0.38l5.38-5a1.44,1.44,0,0,1,1.86,0c0.34,0.4.74,0.74,1.1,1.12a0.39,0.39,0,0,1,.1.29,0.35,0.35,0,0,1-.27.11H27Z"/><path class="cls-1" d="M34.41,13H32.72c-0.13,0-.3.07-0.38-0.11a0.33,0.33,0,0,1,.19-0.37c0.34-.35.72-0.66,1-1a1.45,1.45,0,0,1,1.9,0c1.23,1.17,2.48,2.33,3.73,3.49l1.59,1.49c0.2,0.19.2,0.25,0,.43l-1.17,1c-0.2.17-.34,0.14-0.45-0.1-0.22-.52-0.46-1-0.67-1.55a0.36,0.36,0,0,0-.38-0.26,9.66,9.66,0,0,1-2.4-.36,5.06,5.06,0,0,1-.86-0.36,1,1,0,0,1-.56-1c0-.42.08-0.83,0.13-1.28"/><path class="cls-1" d="M34.26,24.15a2.42,2.42,0,0,1-1.44-.45,0.52,0.52,0,0,0-.68,0,2.12,2.12,0,0,1-1.43.4,2,2,0,0,1-1-.35,0.62,0.62,0,0,0-.89,0,2.16,2.16,0,0,1-2.18.12,8.85,8.85,0,0,1-1.07-.73,0.31,0.31,0,0,1-.09-0.4,0.51,0.51,0,0,1,.85-0.21,1.83,1.83,0,0,0,2.42.13l0.14-.1a0.58,0.58,0,0,1,.84,0,1.67,1.67,0,0,0,1.57.4,1.81,1.81,0,0,0,.67-0.32,0.69,0.69,0,0,1,1.09,0,1.73,1.73,0,0,0,1.65.31,3.75,3.75,0,0,0,.83-0.49,0.42,0.42,0,0,1,.53,0,0.53,0.53,0,0,1,.29.55,0.25,0.25,0,0,1-.06.12,3.94,3.94,0,0,1-1.56,1,3.17,3.17,0,0,1-.44.06"/><path class="cls-1" d="M31.72,7.09l0.93,0.76a0.32,0.32,0,0,1,.11.1,0.4,0.4,0,0,1,0,.24,0.21,0.21,0,0,1-.17.08H29.94A0.26,0.26,0,0,1,29.64,8q0-.87,0-1.75A0.27,0.27,0,0,1,30,5.91h2.6a0.3,0.3,0,0,1,.23.1,0.37,0.37,0,0,1-.08.29,6.32,6.32,0,0,1-.56.45l-0.45.34"/><path class="cls-2" d="M30.65,31.13L17.18,23.35V7.78L30.65,0,44.13,7.78V23.35Zm-12.1-8.57,12.1,7,12.1-7v-14l-12.1-7-12.1,7v14Z"/><path class="cls-2" d="M51.6,23H55V13.47h1.95V10.89H55V9a0.92,0.92,0,0,1,.28-0.75A1.1,1.1,0,0,1,56,8h0.94V5.16H56.27a10.12,10.12,0,0,0-2,.18A3.52,3.52,0,0,0,52.81,6a2.78,2.78,0,0,0-.9,1.27,6,6,0,0,0-.31,2.08v1.57H49.88v2.58H51.6V23h0Zm15.34,0h3.26c0-.22-0.09-0.45-0.12-0.68a6.31,6.31,0,0,1,0-.82v-7a3.45,3.45,0,0,0-.43-1.77,3.53,3.53,0,0,0-1.19-1.21,5.55,5.55,0,0,0-1.74-.69,9.57,9.57,0,0,0-2.11-.22,7.58,7.58,0,0,0-2.65.4,5.06,5.06,0,0,0-1.71,1,3.81,3.81,0,0,0-1,1.36,4.76,4.76,0,0,0-.34,1.44h3.24a1.73,1.73,0,0,1,.63-1.3A2.53,2.53,0,0,1,64.43,13a2.62,2.62,0,0,1,1.75.53,2,2,0,0,1,.62,1.61V15.7l-3.12.19a9.48,9.48,0,0,0-2.79.53,4.34,4.34,0,0,0-1.55,1,2.48,2.48,0,0,0-.66,1.14,4.8,4.8,0,0,0-.14,1.09,3.57,3.57,0,0,0,.39,1.74,3.3,3.3,0,0,0,1,1.14,4.13,4.13,0,0,0,1.37.62,6,6,0,0,0,1.46.19,6.43,6.43,0,0,0,2.17-.4,4.3,4.3,0,0,0,2-1.5h0V23h0ZM66.8,18.8a1.53,1.53,0,0,1-.28.93,2.27,2.27,0,0,1-.7.63,3.33,3.33,0,0,1-.9.36,3.7,3.7,0,0,1-.88.12,4.57,4.57,0,0,1-.81-0.07,2.05,2.05,0,0,1-.67-0.24,1.35,1.35,0,0,1-.46-0.43,1.2,1.2,0,0,1-.18-0.67,1.21,1.21,0,0,1,.45-1A3.27,3.27,0,0,1,64,18l2.82-.26v1.1h0ZM73.55,23h3.24V21.26h0a4.27,4.27,0,0,0,1.74,1.55,5.1,5.1,0,0,0,2.18.47,5,5,0,0,0,2.3-.53,5.64,5.64,0,0,0,1.77-1.41,6.53,6.53,0,0,0,1.15-2,7.12,7.12,0,0,0,.41-2.42A7.43,7.43,0,0,0,86,14.49a6.48,6.48,0,0,0-1.1-2,5.16,5.16,0,0,0-4.1-1.91,4.3,4.3,0,0,0-3.83,2h0V5.3H73.55V23h0Zm9.12-4.61a3.49,3.49,0,0,1-.59,1.14,2.91,2.91,0,0,1-1,.79,2.82,2.82,0,0,1-1.32.29,2.77,2.77,0,0,1-1.28-.28,2.8,2.8,0,0,1-.94-0.77A3.46,3.46,0,0,1,77,18.35a4.83,4.83,0,0,1-.2-1.41A4.61,4.61,0,0,1,77,15.63a3.34,3.34,0,0,1,.58-1.13,2.87,2.87,0,0,1,1-.79,3,3,0,0,1,1.37-.29,2.6,2.6,0,0,1,1.28.31,3,3,0,0,1,.93.8,3.45,3.45,0,0,1,.56,1.14A4.69,4.69,0,0,1,82.87,17a4.56,4.56,0,0,1-.2,1.35M88.92,23H92.3V5.3H88.92V23h0Zm14.45,0h3.26c0-.22-0.09-0.45-0.12-0.68a6.29,6.29,0,0,1,0-.82v-7a3.44,3.44,0,0,0-.43-1.77,3.52,3.52,0,0,0-1.19-1.21,5.55,5.55,0,0,0-1.74-.69,9.58,9.58,0,0,0-2.11-.22,7.59,7.59,0,0,0-2.65.4,5.09,5.09,0,0,0-1.71,1,3.83,3.83,0,0,0-1,1.36,4.77,4.77,0,0,0-.34,1.44h3.24a1.73,1.73,0,0,1,.63-1.3,2.53,2.53,0,0,1,1.64-.48,2.63,2.63,0,0,1,1.75.53,2,2,0,0,1,.62,1.61V15.7l-3.12.19a9.48,9.48,0,0,0-2.79.53,4.35,4.35,0,0,0-1.55,1,2.47,2.47,0,0,0-.66,1.14A4.76,4.76,0,0,0,95,19.6a3.56,3.56,0,0,0,.39,1.74,3.28,3.28,0,0,0,1,1.14,4.11,4.11,0,0,0,1.37.62,6,6,0,0,0,1.46.19,6.44,6.44,0,0,0,2.17-.4,4.31,4.31,0,0,0,2-1.5h0V23h0Zm-0.14-4.16a1.53,1.53,0,0,1-.28.93,2.28,2.28,0,0,1-.7.63,3.36,3.36,0,0,1-.9.36,3.71,3.71,0,0,1-.88.12,4.56,4.56,0,0,1-.81-0.07A2.06,2.06,0,0,1,99,20.54a1.35,1.35,0,0,1-.46-0.43,1.36,1.36,0,0,1,.27-1.68,3.27,3.27,0,0,1,1.62-.47l2.82-.26v1.1h0ZM110,23h3.24V21.26h0A4.28,4.28,0,0,0,115,22.81a5.11,5.11,0,0,0,2.18.47,5,5,0,0,0,2.3-.53,5.63,5.63,0,0,0,1.77-1.41,6.55,6.55,0,0,0,1.15-2,7.11,7.11,0,0,0,.41-2.42,7.4,7.4,0,0,0-.39-2.41,6.45,6.45,0,0,0-1.1-2,5.16,5.16,0,0,0-4.1-1.91,4.29,4.29,0,0,0-3.83,2h0V5.3H110V23h0Zm9.12-4.61a3.48,3.48,0,0,1-.59,1.14,2.91,2.91,0,0,1-1,.79,2.81,2.81,0,0,1-1.31.29,2.77,2.77,0,0,1-1.28-.28A2.81,2.81,0,0,1,114,19.5a3.47,3.47,0,0,1-.59-1.15,4.83,4.83,0,0,1-.2-1.41,4.58,4.58,0,0,1,.19-1.31A3.33,3.33,0,0,1,114,14.5a2.87,2.87,0,0,1,1-.79,3,3,0,0,1,1.37-.29,2.6,2.6,0,0,1,1.28.31,3,3,0,0,1,.93.8,3.44,3.44,0,0,1,.56,1.14A4.71,4.71,0,0,1,119.3,17a4.51,4.51,0,0,1-.2,1.35"/><polygon class="cls-2" points="93.04 26.68 94.08 26.68 94.08 30.93 96.09 30.93 96.09 31.9 93.04 31.9 93.04 26.68 93.04 26.68"/><polygon class="cls-2" points="96.96 26.68 98 26.68 98 31.9 96.96 31.9 96.96 26.68 96.96 26.68"/><path class="cls-2" d="M101.73,28.06a0.49,0.49,0,0,0-.23-0.43,0.92,0.92,0,0,0-.54-0.16,1,1,0,0,0-.61.16,0.49,0.49,0,0,0-.22.42,0.47,0.47,0,0,0,.06.24,0.66,0.66,0,0,0,.15.17,0.93,0.93,0,0,0,.19.12l0.2,0.08,1,0.31a2.68,2.68,0,0,1,.48.21,1.53,1.53,0,0,1,.38.29,1.18,1.18,0,0,1,.25.4,1.5,1.5,0,0,1,.09.53,1.63,1.63,0,0,1-.09.52,1.43,1.43,0,0,1-.32.52,1.74,1.74,0,0,1-.59.4A2.27,2.27,0,0,1,101,32a2.92,2.92,0,0,1-.77-0.09,2,2,0,0,1-.54-0.23,1.23,1.23,0,0,1-.35-0.32,1.6,1.6,0,0,1-.2-0.36A1.49,1.49,0,0,1,99,30.65a2.35,2.35,0,0,1,0-.28l1,0a0.75,0.75,0,0,0,.08.35,0.68,0.68,0,0,0,.21.24,0.82,0.82,0,0,0,.3.14,1.52,1.52,0,0,0,.36,0,1.23,1.23,0,0,0,.28,0,1.1,1.1,0,0,0,.28-0.1,0.65,0.65,0,0,0,.21-0.18,0.41,0.41,0,0,0,.08-0.26,0.59,0.59,0,0,0,0-.19,0.4,0.4,0,0,0-.1-0.15,0.85,0.85,0,0,0-.19-0.14l-0.32-.14-1.14-.41a1.56,1.56,0,0,1-.4-0.21,1.46,1.46,0,0,1-.31-0.3,1.38,1.38,0,0,1-.2-0.37,1.23,1.23,0,0,1-.07-0.42,1.72,1.72,0,0,1,.09-0.53,1.52,1.52,0,0,1,.31-0.53,1.63,1.63,0,0,1,.56-0.4,2,2,0,0,1,.85-0.16,2.3,2.3,0,0,1,1,.17,1.64,1.64,0,0,1,.57.41,1.28,1.28,0,0,1,.26.48,1.57,1.57,0,0,1,.07.39l-1,0h0Z"/><path class="cls-2" d="M105.57,31a1,1,0,0,0,.69-0.19,0.62,0.62,0,0,0,.2-0.47,0.76,0.76,0,0,0,0-.25,0.58,0.58,0,0,0-.14-0.22,0.71,0.71,0,0,0-.25-0.16,1.07,1.07,0,0,0-.38-0.06h-0.77V31h0.69Zm-0.06-2.19a1,1,0,0,0,.6-0.16,0.55,0.55,0,0,0,.23-0.48,0.53,0.53,0,0,0-.21-0.47,0.9,0.9,0,0,0-.52-0.15h-0.72v1.26h0.63Zm-1.67-2.15h1.85a2.42,2.42,0,0,1,.73.1,1.45,1.45,0,0,1,.53.29,1.21,1.21,0,0,1,.32.45,1.5,1.5,0,0,1,.11.58,1.25,1.25,0,0,1-.06.39,1.05,1.05,0,0,1-.15.3,1.11,1.11,0,0,1-.23.23,1.39,1.39,0,0,1-.27.16h0a1.07,1.07,0,0,1,.33.14,1.19,1.19,0,0,1,.28.25,1.12,1.12,0,0,1,.19.35,1.35,1.35,0,0,1,.07.44,1.49,1.49,0,0,1-.13.64,1.37,1.37,0,0,1-.37.48,1.67,1.67,0,0,1-.57.3,2.45,2.45,0,0,1-.74.1h-1.9V26.68h0Z"/><path class="cls-2" d="M112.24,29.29a2.47,2.47,0,0,0-.09-0.67,1.72,1.72,0,0,0-.27-0.57,1.36,1.36,0,0,0-.46-0.39,1.46,1.46,0,0,0-1.27,0,1.37,1.37,0,0,0-.46.39,1.74,1.74,0,0,0-.27.57,2.57,2.57,0,0,0,0,1.35,1.74,1.74,0,0,0,.27.57,1.37,1.37,0,0,0,.46.39,1.46,1.46,0,0,0,1.27,0,1.36,1.36,0,0,0,.46-0.39,1.72,1.72,0,0,0,.27-0.57,2.47,2.47,0,0,0,.09-0.67h0Zm-4,0a3.07,3.07,0,0,1,.17-1,2.63,2.63,0,0,1,.49-0.86,2.39,2.39,0,0,1,.79-0.6,2.71,2.71,0,0,1,2.17,0,2.4,2.4,0,0,1,.8.6,2.64,2.64,0,0,1,.49.86,3.13,3.13,0,0,1,0,2,2.64,2.64,0,0,1-.49.86,2.41,2.41,0,0,1-.8.6,2.71,2.71,0,0,1-2.17,0,2.4,2.4,0,0,1-.79-0.6,2.63,2.63,0,0,1-.49-0.86,3.07,3.07,0,0,1-.17-1h0Z"/><path class="cls-2" d="M116.17,27.94h0l-0.66,2h1.34l-0.67-2h0Zm0.94,2.88H115.2l-0.34,1.09h-1.12l1.9-5.22h1.1l1.88,5.22h-1.15l-0.35-1.09h0Z"/></svg>