<svg id="Layer_2" data-name="Layer 2" xmlns="http://www.w3.org/2000/svg" viewBox="0 0 368 294.85"><defs><style>.cls-1,.cls-3{fill:#fff;}.cls-1,.cls-4,.cls-5{stroke:#fff;}.cls-1,.cls-2,.cls-4,.cls-5{stroke-miterlimit:10;}.cls-2,.cls-4,.cls-5{fill:none;}.cls-2{stroke:#662d91;}.cls-4{stroke-width:2px;}.cls-5{stroke-width:1.5px;}</style></defs><title>main</title><path class="cls-1" d="M51.68,42.78H50.89l-12.71-27H39L51.29,42l6.55-14.11h0.79L65.25,42l12.2-26.17h0.79l-12.6,27H64.86L58.23,28.71Z"/><path class="cls-1" d="M94.05,15.78a13.5,13.5,0,1,1-13.5,13.5A13.49,13.49,0,0,1,94.05,15.78Zm0,26.31A12.81,12.81,0,1,0,81.24,29.28,12.78,12.78,0,0,0,94.05,42.1Z"/><path class="cls-1" d="M121.85,31.73h-7.7V42.78h-0.68v-27h9.11a8,8,0,0,1,.11,15.95L129,42.78h-0.83Zm0.72-15.26h-8.42V31h8.42A7.29,7.29,0,0,0,122.57,16.47Z"/><path class="cls-1" d="M141.14,28.13l14.61,14.65h-1.08L140.57,28.71,137,32.23V42.78h-0.68v-27H137V31.15l15.48-15.37h1Z"/><path class="cls-1" d="M173.43,22.73A6.23,6.23,0,1,0,167.21,29a6.91,6.91,0,1,1-6.91,6.87H161a6.23,6.23,0,1,0,6.23-6.23,6.91,6.91,0,1,1,6.91-6.87h-0.68Z"/><path class="cls-1" d="M202.37,29.32H181V42.78h-0.68v-27H181V28.63h21.34V15.78h0.68v27h-0.68V29.32Z"/><path class="cls-1" d="M221.71,15.78a13.5,13.5,0,1,1-13.5,13.5A13.49,13.49,0,0,1,221.71,15.78Zm0,26.31a12.81,12.81,0,1,0-12.81-12.81A12.78,12.78,0,0,0,221.71,42.1Z"/><path class="cls-1" d="M258.21,23.78a8,8,0,0,1-8,8H241.8V42.78h-0.68v-27h9.11A8,8,0,0,1,258.21,23.78ZM241.8,16.47V31h8.42a7.29,7.29,0,0,0-.07-14.58H241.8Z"/><path class="cls-1" d="M281.61,15.78h10.15a13.5,13.5,0,0,1,0,27H281.61v-27Zm10,0.72h-9.32V42.06h9.32A12.78,12.78,0,1,0,291.65,16.5Z"/><path class="cls-1" d="M311,15.78h16.81V16.5H311.64V28.6h15v0.72h-15V42.06h16.13v0.72H311v-27Z"/><path class="cls-1" d="M58.11,86V59h0.68V86H58.11Z"/><path class="cls-1" d="M68.12,59.7V86H67.4V59h1.19L89.43,85.26V59h0.72V86H89Z"/><path class="cls-1" d="M116.32,59v0.68H106V86H105.3V59.67H95V59h21.31Z"/><path class="cls-1" d="M130.54,74.93h-7.7V86h-0.68V59h9.11a8,8,0,0,1,.11,15.95L137.74,86h-0.83Zm0.72-15.26h-8.42V74.25h8.42A7.29,7.29,0,0,0,131.26,59.67Z"/><path class="cls-1" d="M157,59a13.5,13.5,0,1,1-13.5,13.5A13.49,13.49,0,0,1,157,59Zm0,26.31a12.81,12.81,0,1,0-12.81-12.81A12.78,12.78,0,0,0,157,85.3Z"/><path class="cls-1" d="M176.4,59h10.15a13.5,13.5,0,0,1,0,27H176.4V59Zm10,0.72h-9.32V85.26h9.32A12.78,12.78,0,1,0,186.45,59.7Z"/><path class="cls-1" d="M204.7,59h0.72V75.33a10,10,0,0,0,19.91,0V59H226V75.33a10.67,10.67,0,0,1-21.34,0V59Z"/><path class="cls-1" d="M253.87,82a13.5,13.5,0,1,1-.07-19.15l-0.5.47a12.85,12.85,0,1,0,.07,18.14Z"/><path class="cls-1" d="M257.15,86l12.6-27h0.76l12.71,27h-0.79l-4.1-8.67H262l-4,8.67h-0.79Zm5.18-9.4H278l-7.81-16.77Z"/><path class="cls-1" d="M298.69,59a13.5,13.5,0,1,1-13.5,13.5A13.49,13.49,0,0,1,298.69,59Zm0,26.31a12.81,12.81,0,1,0-12.81-12.81A12.78,12.78,0,0,0,298.69,85.3Z"/><line class="cls-2" x1="244.21" y1="165.88" x2="240.46" y2="170.57"/><path class="cls-3" d="M34.18,108.54h15.1a20.36,20.36,0,1,1,0,40.73H34.18V108.54Zm10.64,30.08h4.51a9.64,9.64,0,1,0,0-19.28H44.82v19.28Z"/><path class="cls-3" d="M77,108.54h25.3v8.85H87.72V124h12.92v9H87.72v7.49h14.61v8.74H77V108.54Z"/><path class="cls-3" d="M125,121a3.13,3.13,0,0,0-3.1-3.1,3.08,3.08,0,0,0-3,3.1,3,3,0,0,0,3,3,12.6,12.6,0,1,1-12.54,12.54h9.5a3,3,0,0,0,3,3.1,3.08,3.08,0,0,0,3.1-3,3.13,3.13,0,0,0-3.1-3.1A12.52,12.52,0,1,1,134.43,121H125Z"/><path class="cls-3" d="M142,108.54h10.7v40.73H142V108.54Z"/><path class="cls-3" d="M201,127.38v1.52a20.39,20.39,0,1,1-6-14.44l-7.55,7.49a9.74,9.74,0,0,0-6.79-2.71,9.67,9.67,0,1,0,7.87,15.31h-7.87v-7.17H201Z"/><path class="cls-3" d="M236.74,149.26L217.52,130v19.28h-10.7V108.54h4.34l19.28,19.22V108.54h10.7v40.73h-4.4Z"/><path class="cls-3" d="M273.78,108.54h15.1a20.36,20.36,0,1,1,0,40.73h-15.1V108.54Zm10.64,30.08h4.51a9.64,9.64,0,1,0,0-19.28h-4.51v19.28Z"/><path class="cls-3" d="M316.63,108.54h25.3v8.85H327.33V124h12.92v9H327.33v7.49h14.61v8.74h-25.3V108.54Z"/><path class="cls-3" d="M71.28,188.38l29-26.46h8.47V233.3H89.93V196.66l-18.65,17L52.53,196.75V233.3H33.68V161.92h8.47Z"/><path class="cls-3" d="M157.33,161.92a35.69,35.69,0,1,1-35.6,35.79A35.79,35.79,0,0,1,157.33,161.92Zm0,18.66a17,17,0,1,0,17,17A17,17,0,0,0,157.33,180.57Z"/><path class="cls-3" d="M206.07,161.92h26.46a35.69,35.69,0,1,1,0,71.38H206.07V161.92Zm18.66,52.73h7.9a16.89,16.89,0,1,0,0-33.79h-7.9v33.79Z"/><path class="cls-3" d="M273.56,233.3l33.31-71.38h8.47l33.6,71.38H330.19L325.81,224H296.59l-4.28,9.33H273.56Zm30.36-25.13h14.56l-7.23-15.7Z"/><path class="cls-3" d="M33.68,247.53H42v31.54H33.68V247.53Z"/><path class="cls-3" d="M71.5,279.07L56.61,264.14v14.93H48.32V247.53h3.36l14.93,14.89V247.53H74.9v31.54H71.5Z"/><path class="cls-3" d="M80.59,247.48h24.86v8.24H97.07v23.34H88.79V255.73h-8.2v-8.24Z"/><path class="cls-3" d="M111.17,247.53h19.6v6.86H119.45v5.13h10v7h-10v5.8h11.31v6.77h-19.6V247.53Z"/><path class="cls-3" d="M155,279.07l-4.88-8.37H145v8.37H136.7V247.53H150a11.58,11.58,0,0,1,7.86,20.1l6.69,11.44H155Zm-10-15.52h5.13a4.52,4.52,0,1,0,0-9H145v9Z"/><path class="cls-3" d="M167.37,279.07l14.72-31.54h3.74l14.85,31.54h-8.29l-1.93-4.12H177.54l-1.89,4.12h-8.29ZM180.78,268h6.44L184,261Z"/><path class="cls-3" d="M223.31,258a7.36,7.36,0,0,0-5.3-2.06,7.4,7.4,0,1,0,5.3,12.7l5.89,5.8A15.77,15.77,0,1,1,218,247.53a15.6,15.6,0,0,1,11.1,4.58Z"/><path class="cls-3" d="M234.42,247.48h24.86v8.24H250.9v23.34h-8.29V255.73h-8.2v-8.24Z"/><path class="cls-3" d="M265,247.53h8.29v31.54H265V247.53Z"/><path class="cls-3" d="M310,247.48l-14.68,31.59h-3.79l-14.72-31.59h8.33l8.29,18,8.33-18H310Z"/><path class="cls-3" d="M327.46,247.53a15.77,15.77,0,1,1-15.73,15.81A15.81,15.81,0,0,1,327.46,247.53Zm0,8.24A7.53,7.53,0,1,0,335,263.3,7.51,7.51,0,0,0,327.46,255.77Z"/><line class="cls-4" x1="16.47" y1="15.78" x2="16.47" y2="279.07"/><line class="cls-4" x1="358.29" y1="15.78" x2="358.29" y2="279.07"/><line class="cls-5" x1="244.21" y1="86.01" x2="241.14" y2="90.68"/><path class="cls-5" d="M265.59,54.4a2.12,2.12,0,0,1,4-1.06l0.27,0.79a2.12,2.12,0,0,0,4-1.06"/></svg>